<svg width="388" height="141" viewBox="0 0 388 141" fill="none" xmlns="http://www.w3.org/2000/svg">
<g clip-path="url(#clip0_53_2)">
<path d="M387.5 70.5C387.5 80.0333 382.185 89.1802 372.429 97.5625C362.674 105.943 348.53 113.514 331.008 119.881C295.969 132.614 247.529 140.5 194 140.5C140.471 140.5 92.0314 132.614 56.9921 119.881C39.4703 113.514 25.3259 105.943 15.5713 97.5625C5.81507 89.1802 0.5 80.0333 0.5 70.5C0.5 60.9667 5.81507 51.8198 15.5713 43.4375C25.3259 35.0565 39.4703 27.4863 56.9921 21.1189C92.0314 8.38553 140.471 0.5 194 0.5C247.529 0.5 295.969 8.38553 331.008 21.1189C348.53 27.4863 362.674 35.0565 372.429 43.4375C382.185 51.8198 387.5 60.9667 387.5 70.5Z" stroke="#B7B8B1"/>
<path d="M370.5 70.5C370.5 80.0514 365.642 89.2019 356.748 97.5778C347.852 105.955 334.954 113.521 318.973 119.887C287.014 132.616 242.83 140.5 194 140.5C145.17 140.5 100.986 132.616 69.0271 119.887C53.0465 113.521 40.1477 105.955 31.2523 97.5778C22.3579 89.2019 17.5 80.0514 17.5 70.5C17.5 60.9486 22.3579 51.7981 31.2523 43.4222C40.1477 35.0454 53.0465 27.4786 69.0271 21.1135C100.986 8.38428 145.17 0.5 194 0.5C242.83 0.5 287.014 8.38428 318.973 21.1135C334.954 27.4786 347.852 35.0454 356.748 43.4222C365.642 51.7981 370.5 60.9486 370.5 70.5Z" stroke="#B7B8B1"/>
<path d="M352.5 70.5C352.5 80.0709 348.127 89.2267 340.143 97.5967C332.156 105.969 320.576 113.532 306.227 119.894C277.531 132.618 237.854 140.5 194 140.5C150.146 140.5 110.469 132.618 81.7727 119.894C67.4241 113.532 55.8435 105.969 47.8568 97.5967C39.8725 89.2267 35.5 80.0709 35.5 70.5C35.5 60.9291 39.8725 51.7733 47.8568 43.4033C55.8435 35.0308 67.4241 27.4681 81.7727 21.1061C110.469 8.38244 150.146 0.5 194 0.5C237.854 0.5 277.531 8.38244 306.227 21.1061C320.576 27.4681 332.156 35.0308 340.143 43.4033C348.127 51.7733 352.5 60.9291 352.5 70.5Z" stroke="#B7B8B1"/>
<path d="M334.5 70.5C334.5 89.6776 318.996 107.173 293.624 119.904C268.282 132.62 233.237 140.5 194.5 140.5C155.763 140.5 120.718 132.62 95.3757 119.904C70.0041 107.173 54.5 89.6776 54.5 70.5C54.5 51.3224 70.0041 33.8269 95.3757 21.0959C120.718 8.37963 155.763 0.5 194.5 0.5C233.237 0.5 268.282 8.37963 293.624 21.0959C318.996 33.8269 334.5 51.3224 334.5 70.5Z" stroke="#B7B8B1"/>
<path d="M315.5 70.5C315.5 89.715 302.074 107.205 280.163 119.919C258.264 132.625 227.979 140.5 194.5 140.5C161.021 140.5 130.736 132.625 108.837 119.919C86.9265 107.205 73.5 89.715 73.5 70.5C73.5 51.285 86.9265 33.7952 108.837 21.0814C130.736 8.37506 161.021 0.5 194.5 0.5C227.979 0.5 258.264 8.37506 280.163 21.0814C302.074 33.7952 315.5 51.285 315.5 70.5Z" stroke="#B7B8B1"/>
<path d="M295.5 70.5C295.5 89.7572 284.207 107.245 265.841 119.94C247.476 132.633 222.078 140.5 194 140.5C165.922 140.5 140.524 132.633 122.159 119.94C103.793 107.245 92.5 89.7572 92.5 70.5C92.5 51.2428 103.793 33.755 122.159 21.0603C140.524 8.36698 165.922 0.5 194 0.5C222.078 0.5 247.476 8.36698 265.841 21.0603C284.207 33.755 295.5 51.2428 295.5 70.5Z" stroke="#B7B8B1"/>
</g>
<defs>
<clipPath id="clip0_53_2">
<rect width="388" height="141" fill="white"/>
</clipPath>
</defs>
</svg>
